<?xml version="1.0" encoding="utf-8"?>
<svg version="1.1" xmlns:xlink="http://www.w3.org/1999/xlink" width="14px" height="14px" viewBox="465 199  14 14" xmlns="http://www.w3.org/2000/svg">
  <path d="M 472 199  C 475.92 199  479 202.08  479 206  C 479 209.92  475.92 213  472 213  C 468.08 213  465 209.92  465 206  C 465 202.08  468.08 199  472 199  Z " fill-rule="nonzero" fill="#ffffff" stroke="none" />
  <path d="M 472 199.5  C 475.64 199.5  478.5 202.36  478.5 206  C 478.5 209.64  475.64 212.5  472 212.5  C 468.36 212.5  465.5 209.64  465.5 206  C 465.5 202.36  468.36 199.5  472 199.5  Z " stroke-width="1" stroke="#797979" fill="none" />
  <path d="M 472 209.5  C 470.04 209.5  468.5 207.96  468.5 206  C 468.5 204.04  470.04 202.5  472 202.5  C 473.96 202.5  475.5 204.04  475.5 206  C 475.5 207.96  473.96 209.5  472 209.5  " fill-rule="nonzero" fill="#797979" stroke="none" />
</svg>