<?xml version="1.0" encoding="utf-8"?>
<svg version="1.1" xmlns:xlink="http://www.w3.org/1999/xlink" width="14px" height="14px" viewBox="597 199  14 14" xmlns="http://www.w3.org/2000/svg">
  <path d="M 604 199  C 607.92 199  611 202.08  611 206  C 611 209.92  607.92 213  604 213  C 600.08 213  597 209.92  597 206  C 597 202.08  600.08 199  604 199  Z " fill-rule="nonzero" fill="#ffffff" stroke="none" />
  <path d="M 604 199.5  C 607.64 199.5  610.5 202.36  610.5 206  C 610.5 209.64  607.64 212.5  604 212.5  C 600.36 212.5  597.5 209.64  597.5 206  C 597.5 202.36  600.36 199.5  604 199.5  Z " stroke-width="1" stroke="#797979" fill="none" />
  <path d="M 604 209.5  C 602.04 209.5  600.5 207.96  600.5 206  C 600.5 204.04  602.04 202.5  604 202.5  C 605.96 202.5  607.5 204.04  607.5 206  C 607.5 207.96  605.96 209.5  604 209.5  " fill-rule="nonzero" fill="#797979" stroke="none" />
</svg>