<?xml version="1.0" encoding="utf-8"?>
<svg version="1.1" xmlns:xlink="http://www.w3.org/1999/xlink" width="22px" height="25px" xmlns="http://www.w3.org/2000/svg">
  <g transform="matrix(1 0 0 1 -304 -261 )">
    <path d="M 16.6145833333333 22.7363325740319  C 16.7291666666667 22.622437357631  16.7625868055556 22.4848139711465  16.71484375 22.3234624145786  C 16.6671006944444 22.1431283219438  16.5525173611111 22.1194001518603  16.37109375 22.252277904328  C 16.0846354166667 22.461085801063  15.6692708333333 22.6461655277145  15.125 22.8075170842825  C 14.5807291666667 22.9688686408504  13.9552951388889 23.0495444191344  13.2486979166667 23.0495444191344  C 12.0169270833333 23.0495444191344  11.0954861111111 22.8170083523159  10.484375 22.3519362186788  C 10.4366319444444 22.3139711465452  10.3745659722222 22.2949886104784  10.2981770833333 22.2949886104784  C 10.1931423611111 22.2949886104784  10.0690104166667 22.3519362186788  9.92578125 22.4658314350797  C 9.85894097222222 22.5227790432802  9.82313368055556 22.5987091875475  9.818359375 22.6936218678816  C 9.81358506944445 22.7885345482156  9.84939236111111 22.8834472285497  9.92578125 22.9783599088838  C 10.2504340277778 23.2820804859529  10.6681857638889 23.5003796507213  11.1790364583333 23.6332574031891  C 11.6898871527778 23.7661351556568  12.1792534722222 23.8254555808656  12.6471354166667 23.8112186788155  C 13.1150173611111 23.7969817767654  13.5876736111111 23.7756264236902  14.0651041666667 23.74715261959  C 14.4565972222222 23.7091875474563  14.8600260416667 23.6119020501139  15.275390625 23.4552961275626  C 15.6907552083333 23.2986902050114  16.0010850694444 23.1563211845103  16.2063802083333 23.0281890660592  C 16.4116753472222 22.9000569476082  16.5477430555556 22.8027714502658  16.6145833333333 22.7363325740319  Z M 15.9557291666667 21.1702733485194  C 16.1753472222222 21.0563781321185  16.2421875 20.8950265755505  16.15625 20.6862186788155  C 15.9748263888889 20.2401290812453  15.7886284722222 19.9506454062263  15.59765625 19.8177676537585  C 15.3780381944444 19.6753986332574  15.0151909722222 19.6042141230068  14.5091145833333 19.6042141230068  C 14.0603298611111 19.6042141230068  13.7213541666667 19.6516704631739  13.4921875 19.746583143508  C 13.2152777777778 19.8604783599089  12.8428819444444 20.1262338648443  12.375 20.5438496583144  C 12.1267361111111 20.7716400911162  12.0694444444444 20.9804479878512  12.203125 21.1702733485194  C 12.2890625 21.2462034927866  12.3726128472222 21.2675588458618  12.4537760416667 21.2343394077449  C 12.5349392361111 21.2011199696279  12.6853298611111 21.0895975702354  12.9049479166667 20.8997722095672  C 12.93359375 20.8807896735004  12.9837239583333 20.8404517843584  13.0553385416667 20.7787585421412  C 13.126953125 20.7170652999241  13.1770833333333 20.6767274107821  13.2057291666667 20.6577448747153  C 13.234375 20.6387623386484  13.2821180555556 20.6055429005315  13.3489583333333 20.5580865603645  C 13.4157986111111 20.5106302201974  13.470703125 20.4774107820805  13.513671875 20.4584282460137  C 13.556640625 20.4394457099468  13.6163194444444 20.4157175398633  13.6927083333333 20.3872437357631  C 13.7690972222222 20.3587699316629  13.8407118055556 20.3374145785877  13.9075520833333 20.3231776765376  C 13.9743923611111 20.3089407744875  14.0531684027778 20.2970766894457  14.1438802083333 20.2875854214123  C 14.2345920138889 20.2780941533789  14.3324652777778 20.2733485193622  14.4375 20.2733485193622  C 14.6953125 20.2733485193622  14.9077690972222 20.3089407744875  15.0748697916667 20.380125284738  C 15.2419704861111 20.4513097949886  15.3517795138889 20.5201214882308  15.404296875 20.5865603644647  C 15.4568142361111 20.6529992406986  15.5212673611111 20.7574031890661  15.59765625 20.8997722095672  C 15.6931423611111 21.0611237661352  15.7528211805556 21.1560364464692  15.7766927083333 21.1845102505695  C 15.8005642361111 21.2129840546697  15.8602430555556 21.208238420653  15.9557291666667 21.1702733485194  Z M 21.033203125 18.1947608200456  C 21.1716579861111 17.625284738041  21.2408854166667 17.1222475322703  21.2408854166667 16.6856492027335  C 21.2408854166667 16.4768413059985  21.2170138888889 16.2656605922551  21.1692708333333 16.0521070615034  C 21.1215277777778 15.8385535307517  21.0427517361111 15.625  20.9329427083333 15.4114464692483  C 20.8231336805556 15.1978929384966  20.6608072916667 15.0246772968869  20.4459635416667 14.8917995444191  C 20.2311197916667 14.7589217919514  19.98046875 14.6924829157175  19.6940104166667 14.6924829157175  C 19.37890625 14.6924829157175  18.9157986111111 14.8894267274108  18.3046875 15.2833143507973  C 17.6935763888889 15.6772019741837  17.0776909722222 16.0734624145786  16.45703125 16.4720956719818  C 15.8363715277778 16.870728929385  15.3541666666667 17.0700455580866  15.0104166666667 17.0700455580866  C 14.7526041666667 17.07953682612  14.4494357638889 16.9893697798026  14.1009114583333 16.7995444191344  C 13.7523871527778 16.6097190584662  13.3895399305556 16.3771829916477  13.0123697916667 16.1019362186788  C 12.6351996527778 15.8266894457099  12.2365451388889 15.5514426727411  11.81640625 15.2761958997722  C 11.3962673611111 15.0009491268033  10.9188368055556 14.7684130599848  10.3841145833333 14.5785876993166  C 9.84939236111111 14.3887623386484  9.31944444444445 14.2985952923311  8.79427083333333 14.3080865603645  C 7.69618055555556 14.3175778283979  6.75564236111111 14.6901100987092  5.97265625 15.4256833712984  C 5.18967013888889 16.1612566438876  4.78862847222222 17.0083523158694  4.76953125 17.9669703872437  C 4.75043402777778 19.0299924069856  5.10373263888889 19.8082763857251  5.82942708333333 20.3018223234624  C 6.10633680555556 20.4916476841306  6.40473090277778 20.6268982536067  6.724609375 20.7075740318907  C 7.04448784722222 20.7882498101746  7.53862847222222 20.8285876993166  8.20703125 20.8285876993166  C 8.75130208333333 20.8285876993166  9.38151041666667 20.6743545937737  10.09765625 20.3658883826879  C 10.8138020833333 20.0574221716021  11.4535590277778 19.7204821564161  12.0169270833333 19.3550683371298  C 12.5802951388889 18.9896545178436  13.1532118055556 18.6550873196659  13.7356770833333 18.3513667425968  C 14.3181423611111 18.0476461655277  14.7621527777778 17.9005315110099  15.0677083333333 17.9100227790433  C 15.3159722222222 17.9195140470767  15.6263020833333 18.0690015186029  15.9986979166667 18.3584851936219  C 16.37109375 18.6479688686408  16.7124565972222 18.9659263477601  17.0227864583333 19.3123576309795  C 17.3331163194444 19.6587889141989  17.6577690972222 19.9791192103265  17.9967447916667 20.2733485193622  C 18.3357204861111 20.5675778283979  18.6006944444444 20.7194381169324  18.7916666666667 20.7289293849658  C 19.1258680555556 20.7574031890661  19.4051649305556 20.6909643128322  19.6295572916667 20.5296127562642  C 19.8539496527778 20.3682611996963  20.1189236111111 20.0692862566439  20.4244791666667 19.6326879271071  C 20.6918402777778 19.2435459377373  20.8947482638889 18.7642369020501  21.033203125 18.1947608200456  Z M 21.720703125 11.88069476082  C 21.9069010416667 12.6921981776765  22 13.5345482156416  22 14.4077448747153  C 22 15.9643128321944  21.7039930555556 17.4093583902809  21.1119791666667 18.7428815489749  C 20.5199652777778 20.0764047076689  19.7274305555556 21.1963743356112  18.734375 22.1027904328018  C 17.7413194444444 23.0092065299924  16.5835503472222 23.7186788154897  15.2610677083333 24.2312072892938  C 13.9385850694444 24.7437357630979  12.5516493055556 25  11.1002604166667 25  C 9.64887152777778 25  8.25 24.7271260440395  6.90364583333333 24.1813781321185  C 5.55729166666667 23.6356302201974  4.37565104166667 22.8905656795748  3.35872395833333 21.9461845102506  C 2.341796875 21.0018033409264  1.52777777777778 19.8557327258922  0.916666666666667 18.5079726651481  C 0.305555555555556 17.1602126044039  0 15.7270311313591  0 14.2084282460137  C 0 13.3637053910402  0.0930989583333333 12.5450835231587  0.279296875 11.752562642369  C 0.465494791666667 10.9600417615793  0.699435763888889 10.2695520121488  0.981119791666667 9.68109339407745  C 1.26280381944444 9.09263477600607  1.59939236111111 8.53027714502657  1.99088541666667 7.99402050113895  C 2.38237847222222 7.45776385725133  2.75716145833333 7.01167425968109  3.115234375 6.65575170842825  C 3.47330729166667 6.2998291571754  3.84809027777778 5.97000759301443  4.23958333333333 5.66628701594533  C 4.63107638888889 5.36256643887623  4.93901909722222 5.14189445709947  5.16341145833333 5.00427107061503  C 5.38780381944444 4.8666476841306  5.59071180555556 4.75037965072133  5.77213541666667 4.65546697038724  C 5.90581597222222 4.57953682611997  6.14930555555556 4.4537775246773  6.50260416666667 4.27818906605923  C 6.85590277777778 4.10260060744115  7.11610243055556 3.96735003796507  7.283203125 3.87243735763098  C 7.45030381944445 3.77752467729689  7.67947048611111 3.63515565679575  7.970703125 3.44533029612756  C 8.26193576388889 3.25550493545937  8.55078125 3.04669703872437  8.83723958333333 2.81890660592255  C 9.18098958333333 2.55315110098709  9.45789930555556 2.209092634776  9.66796875 1.78673120728929  C 9.87803819444445 1.36436977980258  10.0212673611111 0.768792710706151  10.09765625 0  C 11.3294270833333 1.47114654517843  12.2174479166667 2.38705391040243  12.76171875 2.74772209567198  C 13.1818576388889 3.02296886864085  13.8025173611111 3.34567198177677  14.6236979166667 3.71583143507973  C 15.4448784722222 4.08599088838269  16.0607638888889 4.39920273348519  16.4713541666667 4.65546697038724  C 16.671875 4.77885345482156  16.8580729166667 4.89749430523918  17.0299479166667 5.01138952164009  C 17.2018229166667 5.125284738041  17.4906684027778 5.34595671981777  17.896484375 5.67340546697039  C 18.3023003472222 6.00085421412301  18.6651475694444 6.33542141230068  18.9850260416667 6.67710706150342  C 19.3049045138889 7.01879271070615  19.6629774305556 7.46962794229309  20.0592447916667 8.02961275626424  C 20.4555121527778 8.58959757023538  20.7849392361111 9.16856492027335  21.0475260416667 9.76651480637813  C 21.3101128472222 10.3644646924829  21.5345052083333 11.0691913439636  21.720703125 11.88069476082  Z " fill-rule="nonzero" fill="#000000" stroke="none" transform="matrix(1 0 0 1 304 261 )" />
  </g>
</svg>