<?xml version="1.0" encoding="utf-8"?>
<svg version="1.1" xmlns:xlink="http://www.w3.org/1999/xlink" width="18px" height="18px" xmlns="http://www.w3.org/2000/svg">
  <g transform="matrix(1 0 0 1 -1325 -229 )">
    <path d="M 17.1586402266289 0  C 17.5155807365439 0  17.7662889518414 0.166193181818183  17.9107648725212 0.498579545454546  C 18.0552407932011 0.848011363636362  17.9957507082153 1.14630681818182  17.7322946175637 1.39346590909091  L 11.4475920679887 7.69602272727273  L 11.4475920679887 17.1818181818182  C 11.4475920679887 17.5397727272727  11.2818696883853 17.7911931818182  10.9504249291785 17.9360795454545  C 10.8399433427762 17.9786931818182  10.7337110481586 18  10.6317280453258 18  C 10.4022662889518 18  10.2110481586402 17.9190340909091  10.0580736543909 17.7571022727273  L 6.79461756373938 14.484375  C 6.63314447592068 14.3224431818182  6.55240793201133 14.1306818181818  6.55240793201133 13.9090909090909  L 6.55240793201133 7.69602272727273  L 0.267705382436261 1.39346590909091  C 0.00424929178470255 1.14630681818182  -0.0552407932011331 0.848011363636362  0.0892351274787535 0.498579545454546  C 0.23371104815864 0.166193181818183  0.484419263456091 0  0.841359773371105 0  L 17.1586402266289 0  Z " fill-rule="nonzero" fill="#000000" stroke="none" transform="matrix(1 0 0 1 1325 229 )" />
  </g>
</svg>