<?xml version="1.0" encoding="utf-8"?>
<svg version="1.1" xmlns:xlink="http://www.w3.org/1999/xlink" width="22px" height="25px" xmlns="http://www.w3.org/2000/svg">
  <g transform="matrix(1 0 0 1 -1195 -261 )">
    <path d="M 7.28125 5.16075721153846  C 7.39583333333333 5.27594150641025  7.53645833333333 5.33353365384615  7.703125 5.33353365384615  C 7.86979166666667 5.33353365384615  8.01302083333333 5.27594150641025  8.1328125 5.16075721153846  C 8.25260416666667 5.04557291666667  8.3125 4.90785256410256  8.3125 4.74759615384615  C 8.3125 4.58733974358974  8.25260416666667 4.44961939102564  8.1328125 4.33443509615385  C 8.01302083333333 4.21925080128205  7.86979166666667 4.16165865384615  7.703125 4.16165865384615  C 7.53645833333333 4.16165865384615  7.39583333333333 4.21925080128205  7.28125 4.33443509615385  C 7.16666666666667 4.44961939102564  7.109375 4.58733974358974  7.109375 4.74759615384615  C 7.109375 4.90785256410256  7.16666666666667 5.04557291666667  7.28125 5.16075721153846  Z M 13.8671875 5.16075721153846  C 13.9869791666667 5.27594150641025  14.1302083333333 5.33353365384615  14.296875 5.33353365384615  C 14.4635416666667 5.33353365384615  14.6041666666667 5.27594150641025  14.71875 5.16075721153846  C 14.8333333333333 5.04557291666667  14.890625 4.90785256410256  14.890625 4.74759615384615  C 14.890625 4.58733974358974  14.8333333333333 4.44961939102564  14.71875 4.33443509615385  C 14.6041666666667 4.21925080128205  14.4635416666667 4.16165865384615  14.296875 4.16165865384615  C 14.1302083333333 4.16165865384615  13.9869791666667 4.21925080128205  13.8671875 4.33443509615385  C 13.7473958333333 4.44961939102564  13.6875 4.58733974358974  13.6875 4.74759615384615  C 13.6875 4.90785256410256  13.7473958333333 5.04557291666667  13.8671875 5.16075721153846  Z M 0.46875 8.54867788461539  C 0.78125 8.24819711538462  1.16145833333333 8.09795673076923  1.609375 8.09795673076923  C 2.046875 8.09795673076923  2.421875 8.24819711538462  2.734375 8.54867788461539  C 3.046875 8.84915865384615  3.203125 9.20973557692308  3.203125 9.63040865384615  L 3.203125 16.0907451923077  C 3.203125 16.5214342948718  3.04947916666667 16.8870192307692  2.7421875 17.1875  C 2.43489583333333 17.4879807692308  2.05729166666667 17.6382211538462  1.609375 17.6382211538462  C 1.16145833333333 17.6382211538462  0.78125 17.4879807692308  0.46875 17.1875  C 0.15625 16.8870192307692  0 16.5214342948718  0 16.0907451923077  L 0 9.63040865384615  C 0 9.20973557692308  0.15625 8.84915865384615  0.46875 8.54867788461539  Z M 4 8.38341346153846  L 18 8.38341346153846  L 18 18.3894230769231  C 18.171875 18.8501602564103  18.0052083333333 19.2407852564103  17.671875 19.5612980769231  C 17.3385416666667 19.8818108974359  16.9375 20.0420673076923  16.46875 20.0420673076923  L 15.296875 20.0420673076923  L 15.296875 23.4525240384615  C 15.296875 23.8832131410256  15.140625 24.2487980769231  14.828125 24.5492788461538  C 14.515625 24.8497596153846  14.1354166666667 25  13.6875 25  C 13.2395833333333 25  12.859375 24.8497596153846  12.546875 24.5492788461538  C 12.234375 24.2487980769231  12.078125 23.8832131410256  12.078125 23.4525240384615  L 12.078125 20.0420673076923  L 9.921875 20.0420673076923  L 9.921875 23.4525240384615  C 9.921875 23.8832131410256  9.765625 24.2487980769231  9.453125 24.5492788461538  C 9.140625 24.8497596153846  8.76041666666667 25  8.3125 25  C 7.875 25  7.5 24.8497596153846  7.1875 24.5492788461538  C 6.875 24.2487980769231  6.71875 23.8832131410256  6.71875 23.4525240384615  L 6.703125 20.0420673076923  L 5.546875 20.0420673076923  C 5.06770833333333 20.0420673076923  4.66145833333333 19.8818108974359  4.328125 19.5612980769231  C 3.99479166666667 19.2407852564103  3.828125 18.8501602564103  4 18.3894230769231  L 4 8.38341346153846  Z M 15.65625 0.330528846153846  L 14.546875 2.29867788461539  C 15.6614583333333 2.84955929487179  16.5520833333333 3.61828926282051  17.21875 4.60486778846154  C 17.8854166666667 5.59144631410256  18.21875 6.67067307692308  18.21875 8  L 3.765625 8  C 3.765625 6.67067307692308  4.09895833333333 5.59144631410256  4.765625 4.60486778846154  C 5.43229166666667 3.61828926282051  6.328125 2.84955929487179  7.453125 2.29867788461539  L 6.34375 0.330528846153846  C 6.27083333333333 0.200320512820512  6.296875 0.100160256410253  6.421875 0.0300480769230782  C 6.55729166666667 -0.0300480769230782  6.66145833333333 0  6.734375 0.120192307692307  L 7.859375 2.10336538461539  C 8.84895833333333 1.68269230769231  9.89583333333333 1.47235576923077  11 1.47235576923077  C 12.1041666666667 1.47235576923077  13.1510416666667 1.68269230769231  14.140625 2.10336538461539  L 15.265625 0.120192307692307  C 15.3385416666667 0  15.4427083333333 -0.0300480769230782  15.578125 0.0300480769230782  C 15.703125 0.100160256410253  15.7291666666667 0.200320512820512  15.65625 0.330528846153846  Z M 21.53125 8.54116586538462  C 21.84375 8.83663862179487  22 9.19971955128205  22 9.63040865384615  L 22 16.0907451923077  C 22 16.5214342948718  21.84375 16.8870192307692  21.53125 17.1875  C 21.21875 17.4879807692308  20.8385416666667 17.6382211538462  20.390625 17.6382211538462  C 19.953125 17.6382211538462  19.578125 17.4879807692308  19.265625 17.1875  C 18.953125 16.8870192307692  18.796875 16.5214342948718  18.796875 16.0907451923077  L 18.796875 9.63040865384615  C 18.796875 9.19971955128205  18.953125 8.83663862179487  19.265625 8.54116586538462  C 19.578125 8.24569310897436  19.953125 8.09795673076923  20.390625 8.09795673076923  C 20.8385416666667 8.09795673076923  21.21875 8.24569310897436  21.53125 8.54116586538462  Z " fill-rule="nonzero" fill="#00bfbf" stroke="none" transform="matrix(1 0 0 1 1195 261 )" />
  </g>
</svg>