<?xml version="1.0" encoding="utf-8"?>
<svg version="1.1" xmlns:xlink="http://www.w3.org/1999/xlink" width="22px" height="22px" xmlns="http://www.w3.org/2000/svg">
  <g transform="matrix(1 0 0 1 -831 -301 )">
    <path d="M 5.478515625 1.51167444963309  C 7.16384548611111 0.503891483211029  9.00434027777778 0  11 0  C 12.9956597222222 0  14.8361545138889 0.503891483211029  16.521484375 1.51167444963309  C 18.2068142361111 2.51945741605515  19.5412326388889 3.88681343117634  20.5247395833333 5.61374249499666  C 21.5082465277778 7.34067155881699  22 9.22659550811652  22 11.2715143428953  C 22 13.7273738047587  21.3005642361111 15.9361796753391  19.9016927083333 17.8979319546364  C 18.5028211805556 19.8596842339337  16.6957465277778 21.2172559484101  14.48046875 21.9706470980654  C 14.22265625 22.0195686012897  14.0316840277778 21.9853235490327  13.9075520833333 21.8679119412942  C 13.7834201388889 21.7505003335557  13.7213541666667 21.6037358238826  13.7213541666667 21.4276184122749  C 13.7213541666667 21.3982655103402  13.7237413194444 21.0240160106738  13.728515625 20.3048699132755  C 13.7332899305556 19.5857238158773  13.7356770833333 18.9277295975095  13.7356770833333 18.3308872581721  C 13.7356770833333 17.3818100956193  13.4874131944444 16.6871247498332  12.9908854166667 16.2468312208139  C 13.53515625 16.1881254169446  14.0245225694444 16.1000667111408  14.458984375 15.9826551034023  C 14.8934461805556 15.8652434956638  15.3422309027778 15.6744496330887  15.8053385416667 15.4102735156771  C 16.2684461805556 15.1460973982655  16.6551649305556 14.8207694018234  16.9654947916667 14.4342895263509  C 17.2758246527778 14.0478096508784  17.5288628472222 13.5341338670225  17.724609375 12.8932621747832  C 17.9203559027778 12.2523904825439  18.0182291666667 11.5161218590171  18.0182291666667 10.6844563042028  C 18.0182291666667 9.52012452746275  17.6410590277778 8.51234156104069  16.88671875 7.66110740493663  C 17.2400173611111 6.77073604625306  17.2018229166667 5.77273738047587  16.7721354166667 4.66711140760507  C 16.5047743055556 4.5790527018012  16.1180555555556 4.63286635534801  15.6119791666667 4.8285523682455  C 15.1059027777778 5.02423838114298  14.6666666666667 5.23949299533022  14.2942708333333 5.4743162108072  L 13.75 5.82655103402268  C 12.8619791666667 5.57215921725595  11.9453125 5.44496330887258  11 5.44496330887258  C 10.0546875 5.44496330887258  9.13802083333333 5.57215921725595  8.25 5.82655103402268  C 8.09722222222222 5.71892372692906  7.89431423611111 5.58683566822326  7.64127604166667 5.43028685790527  C 7.38823784722222 5.27373804758728  6.98958333333333 5.08539026017345  6.4453125 4.86524349566378  C 5.90104166666667 4.6450967311541  5.49522569444445 4.5790527018012  5.22786458333333 4.66711140760507  C 4.79817708333333 5.77273738047587  4.75998263888889 6.77073604625306  5.11328125 7.66110740493663  C 4.35894097222222 8.51234156104069  3.98177083333333 9.52012452746275  3.98177083333333 10.6844563042028  C 3.98177083333333 11.5161218590171  4.07964409722222 12.2499444073827  4.275390625 12.8859239492995  C 4.47113715277778 13.5219034912164  4.72178819444444 14.0355792750723  5.02734375 14.4269513008672  C 5.33289930555556 14.8183233266622  5.71723090277778 15.1460973982655  6.18033854166667 15.4102735156771  C 6.64344618055556 15.6744496330887  7.09223090277778 15.8652434956638  7.52669270833333 15.9826551034023  C 7.96115451388889 16.1000667111408  8.45052083333333 16.1881254169446  8.99479166666667 16.2468312208139  C 8.62239583333333 16.5990660440294  8.38845486111111 17.1029575272404  8.29296875 17.758505670447  C 8.09244791666667 17.8563486768957  7.87760416666667 17.9297309317323  7.6484375 17.9786524349566  C 7.41927083333333 18.027573938181  7.14713541666667 18.0520346897932  6.83203125 18.0520346897932  C 6.51692708333333 18.0520346897932  6.20421006944445 17.9468534578608  5.89388020833333 17.736490993996  C 5.58355034722222 17.5261285301312  5.31857638888889 17.2203691349789  5.09895833333333 16.819212808539  C 4.91753472222222 16.506115187903  4.68598090277778 16.2517233711363  4.404296875 16.0560373582388  C 4.12261284722222 15.8603513453413  3.88628472222222 15.7429397376028  3.6953125 15.7038025350233  L 3.40885416666667 15.6597731821214  C 3.20833333333333 15.6597731821214  3.06987847222222 15.6817878585724  2.99348958333333 15.7258172114743  C 2.91710069444445 15.7698465643763  2.89322916666667 15.8261062930843  2.921875 15.8945963975984  C 2.95052083333333 15.9630865021125  2.99348958333333 16.0315766066266  3.05078125 16.1000667111408  C 3.10807291666667 16.1685568156549  3.17013888888889 16.2272626195241  3.23697916666667 16.2761841227485  L 3.33723958333333 16.3495663775851  C 3.54730902777778 16.4474093840338  3.75499131944445 16.6333110962864  3.96028645833333 16.9072715143429  C 4.16558159722222 17.1812319323994  4.31597222222222 17.4307315988437  4.41145833333333 17.6557705136758  L 4.5546875 17.993328885924  C 4.67881944444444 18.3651323104292  4.88888888888889 18.6659995552591  5.18489583333333 18.8959306204136  C 5.48090277777778 19.1258616855682  5.80078125 19.2726261952413  6.14453125 19.336224149433  C 6.48828125 19.3998221036246  6.82009548611111 19.4340671558817  7.13997395833333 19.4389593062041  C 7.45985243055556 19.4438514565266  7.72482638888889 19.426728930398  7.93489583333333 19.3875917278185  L 8.26432291666667 19.3288859239493  C 8.26432291666667 19.7006893484545  8.26671006944445 20.1336446519902  8.271484375 20.6277518345564  C 8.27625868055556 21.1218590171225  8.27864583333333 21.3884812096954  8.27864583333333 21.4276184122749  C 8.27864583333333 21.6037358238826  8.21657986111111 21.7505003335557  8.09244791666667 21.8679119412942  C 7.96831597222222 21.9853235490327  7.77734375 22.0195686012897  7.51953125 21.9706470980654  C 5.30425347222222 21.2172559484101  3.49717881944445 19.8596842339337  2.09830729166667 17.8979319546364  C 0.699435763888889 15.9361796753391  0 13.7273738047587  0 11.2715143428953  C 0 9.22659550811652  0.491753472222222 7.34067155881699  1.47526041666667 5.61374249499666  C 2.45876736111111 3.88681343117634  3.79318576388889 2.51945741605515  5.478515625 1.51167444963309  Z M 3.98177083333333 16.2174783188793  C 4.06770833333333 16.2761841227485  4.12977430555556 16.2663998221036  4.16796875 16.1881254169446  C 4.19661458333333 16.1196353124305  4.16319444444444 16.0609295085613  4.06770833333333 16.0120080053369  C 3.97222222222222 15.9826551034023  3.91015625 15.9924394040471  3.88151041666667 16.0413609072715  C 3.85286458333333 16.1098510117856  3.88628472222222 16.1685568156549  3.98177083333333 16.2174783188793  Z M 4.3828125 16.6430953969313  C 4.47829861111111 16.74093840338  4.5546875 16.7556148543473  4.61197916666667 16.6871247498332  C 4.67881944444444 16.6382032466089  4.66927083333333 16.5599288414499  4.58333333333333 16.4523015343562  C 4.48784722222222 16.3642428285524  4.41145833333333 16.3495663775851  4.35416666666667 16.4082721814543  C 4.28732638888889 16.4571936846787  4.296875 16.5354680898377  4.3828125 16.6430953969313  Z M 4.79817708333333 17.2448298865911  C 4.88411458333333 17.3720257949744  4.96527777777778 17.4062708472315  5.04166666666667 17.3475650433622  C 5.12760416666667 17.2790749388481  5.12760416666667 17.1861240827218  5.04166666666667 17.0687124749833  C 4.96527777777778 16.9415165666  4.88411458333333 16.9121636646653  4.79817708333333 16.9806537691795  C 4.71223958333333 17.0295752724038  4.71223958333333 17.1176339782077  4.79817708333333 17.2448298865911  Z M 5.35677083333333 17.9199466310874  C 5.47135416666667 18.0373582388259  5.56684027777778 18.0520346897932  5.64322916666667 17.9639759839893  C 5.71961805555556 17.8857015788303  5.70052083333333 17.792750722704  5.5859375 17.6851234156104  C 5.47135416666667 17.5677118078719  5.37586805555556 17.5530353569046  5.29947916666667 17.6410940627085  C 5.21354166666667 17.7193684678675  5.23263888888889 17.8123193239938  5.35677083333333 17.9199466310874  Z M 6.1875 18.418945963976  C 6.33072916666667 18.4776517678452  6.42144097222222 18.4482988659106  6.45963541666667 18.3308872581721  C 6.48828125 18.2232599510785  6.42621527777778 18.1449855459195  6.2734375 18.0960640426951  C 6.13020833333333 18.0569268401156  6.03949652777778 18.0911718923727  6.00130208333333 18.1987991994663  C 5.96310763888889 18.3064265065599  6.02517361111111 18.3798087613965  6.1875 18.418945963976  Z M 7.1328125 18.5657104736491  C 7.28559027777778 18.5657104736491  7.36197916666667 18.5118968201023  7.36197916666667 18.4042695130087  C 7.36197916666667 18.2770736046253  7.28081597222222 18.2232599510785  7.11848958333333 18.2428285523682  C 6.96571180555556 18.2428285523682  6.88932291666667 18.2966422059151  6.88932291666667 18.4042695130087  C 6.88932291666667 18.531465421392  6.97048611111111 18.5852790749388  7.1328125 18.5657104736491  Z M 7.9921875 18.4629753168779  C 8.14496527777778 18.4238381142984  8.21180555555556 18.3553480097843  8.19270833333333 18.2575050033356  C 8.17361111111111 18.1498776962419  8.08767361111111 18.10584834334  7.93489583333333 18.1254169446298  C 7.78211805555556 18.1547698465644  7.71527777777778 18.2281521014009  7.734375 18.3455637091394  C 7.75347222222222 18.4629753168779  7.83940972222222 18.5021125194574  7.9921875 18.4629753168779  Z " fill-rule="nonzero" fill="#000000" stroke="none" transform="matrix(1 0 0 1 831 301 )" />
  </g>
</svg>