<?xml version="1.0" encoding="utf-8"?>
<svg version="1.1" xmlns:xlink="http://www.w3.org/1999/xlink" width="14px" height="14px" viewBox="466 161  14 14" xmlns="http://www.w3.org/2000/svg">
  <path d="M 473 161  C 476.92 161  480 164.08  480 168  C 480 171.92  476.92 175  473 175  C 469.08 175  466 171.92  466 168  C 466 164.08  469.08 161  473 161  Z " fill-rule="nonzero" fill="#ffffff" stroke="none" />
  <path d="M 473 161.5  C 476.64 161.5  479.5 164.36  479.5 168  C 479.5 171.64  476.64 174.5  473 174.5  C 469.36 174.5  466.5 171.64  466.5 168  C 466.5 164.36  469.36 161.5  473 161.5  Z " stroke-width="1" stroke="#797979" fill="none" />
  <path d="M 473 171.5  C 471.04 171.5  469.5 169.96  469.5 168  C 469.5 166.04  471.04 164.5  473 164.5  C 474.96 164.5  476.5 166.04  476.5 168  C 476.5 169.96  474.96 171.5  473 171.5  " fill-rule="nonzero" fill="#797979" stroke="none" />
</svg>